# Blender v2.75 (sub 0) OBJ File: ''
# www.blender.org
mtllib softsphere.mtl
o Sphere_Sphere.004
v -0.153073 0.369552 0.000000
v -0.282843 0.282843 0.000000
v -0.369552 0.153073 0.000000
v -0.400000 -0.000000 0.000000
v -0.369552 -0.153073 0.000000
v -0.282843 -0.282843 0.000000
v -0.153073 -0.369552 0.000000
v -0.141421 0.369552 -0.058579
v -0.261313 0.282843 -0.108239
v -0.341421 0.153073 -0.141421
v -0.369552 -0.000000 -0.153073
v -0.341421 -0.153073 -0.141421
v -0.261313 -0.282843 -0.108239
v -0.141421 -0.369552 -0.058579
v -0.108239 0.369552 -0.108239
v -0.200000 0.282843 -0.200000
v -0.261313 0.153073 -0.261313
v -0.282843 -0.000000 -0.282843
v -0.261313 -0.153073 -0.261313
v -0.200000 -0.282843 -0.200000
v -0.108239 -0.369552 -0.108239
v -0.058579 0.369552 -0.141421
v -0.108239 0.282843 -0.261313
v -0.141421 0.153073 -0.341421
v -0.153073 -0.000000 -0.369552
v -0.141421 -0.153073 -0.341421
v -0.108239 -0.282843 -0.261313
v -0.058579 -0.369552 -0.141421
v -0.000000 0.369552 -0.153073
v -0.000000 0.282843 -0.282843
v -0.000000 0.153073 -0.369552
v -0.000000 -0.000000 -0.400000
v -0.000000 -0.153073 -0.369552
v -0.000000 -0.282843 -0.282843
v -0.000000 -0.369552 -0.153073
v 0.058579 0.369552 -0.141421
v 0.108239 0.282843 -0.261312
v 0.141421 0.153073 -0.341421
v 0.153073 -0.000000 -0.369552
v 0.141421 -0.153073 -0.341421
v 0.108239 -0.282843 -0.261312
v 0.058579 -0.369552 -0.141421
v 0.108239 0.369552 -0.108239
v 0.200000 0.282843 -0.200000
v 0.261312 0.153073 -0.261312
v 0.282843 -0.000000 -0.282843
v 0.261312 -0.153073 -0.261312
v 0.200000 -0.282843 -0.200000
v 0.108239 -0.369552 -0.108239
v -0.000000 0.400000 0.000000
v 0.141421 0.369552 -0.058579
v 0.261312 0.282843 -0.108239
v 0.341421 0.153073 -0.141421
v 0.369552 -0.000000 -0.153073
v 0.341421 -0.153073 -0.141421
v 0.261312 -0.282843 -0.108239
v 0.141421 -0.369552 -0.058579
v 0.153073 0.369552 0.000000
v 0.282843 0.282843 0.000000
v 0.369552 0.153073 0.000000
v 0.400000 -0.000000 0.000000
v 0.369552 -0.153073 0.000000
v 0.282843 -0.282843 0.000000
v 0.153073 -0.369552 0.000000
v 0.141421 0.369552 0.058579
v 0.261312 0.282843 0.108239
v 0.341421 0.153073 0.141421
v 0.369552 -0.000000 0.153073
v 0.341421 -0.153073 0.141421
v 0.261312 -0.282843 0.108239
v 0.141421 -0.369552 0.058579
v 0.108239 0.369552 0.108239
v 0.200000 0.282843 0.200000
v 0.261312 0.153073 0.261313
v 0.282842 -0.000000 0.282843
v 0.261312 -0.153073 0.261313
v 0.200000 -0.282843 0.200000
v 0.108239 -0.369552 0.108239
v 0.058578 0.369552 0.141421
v 0.108239 0.282843 0.261313
v 0.141421 0.153073 0.341421
v 0.153073 -0.000000 0.369552
v 0.141421 -0.153073 0.341421
v 0.108239 -0.282843 0.261313
v 0.058579 -0.369552 0.141421
v -0.000000 0.369552 0.153073
v -0.000000 0.282843 0.282843
v -0.000000 0.153073 0.369552
v -0.000000 -0.000000 0.400000
v -0.000000 -0.153073 0.369552
v -0.000000 -0.282843 0.282843
v -0.000000 -0.369552 0.153073
v -0.058579 0.369552 0.141421
v -0.108239 0.282843 0.261312
v -0.141422 0.153073 0.341421
v -0.153074 -0.000000 0.369552
v -0.141422 -0.153073 0.341421
v -0.108239 -0.282843 0.261312
v -0.058579 -0.369552 0.141421
v -0.000000 -0.400000 0.000000
v -0.108239 0.369552 0.108239
v -0.200000 0.282843 0.200000
v -0.261313 0.153073 0.261312
v -0.282843 -0.000000 0.282842
v -0.261313 -0.153073 0.261312
v -0.200000 -0.282843 0.200000
v -0.108239 -0.369552 0.108239
v -0.141421 0.369552 0.058579
v -0.261313 0.282843 0.108239
v -0.341421 0.153073 0.141421
v -0.369552 -0.000000 0.153073
v -0.341421 -0.153073 0.141421
v -0.261313 -0.282843 0.108239
v -0.141421 -0.369552 0.058579
vn -0.552200 -0.826400 -0.109800
vn -0.962600 -0.191500 -0.191500
vn -0.820300 0.548100 -0.163200
vn -0.820300 -0.548100 -0.163200
vn -0.962600 0.191500 -0.191500
vn -0.552200 0.826400 -0.109800
vn -0.695400 0.548100 -0.464700
vn -0.695400 -0.548100 -0.464700
vn -0.816100 0.191500 -0.545300
vn -0.468100 0.826400 -0.312800
vn -0.468100 -0.826400 -0.312800
vn -0.816100 -0.191500 -0.545300
vn -0.464700 -0.548100 -0.695400
vn -0.545300 0.191500 -0.816100
vn -0.312800 0.826400 -0.468100
vn -0.312800 -0.826400 -0.468100
vn -0.545300 -0.191500 -0.816100
vn -0.464700 0.548100 -0.695400
vn -0.109800 0.826400 -0.552200
vn -0.109800 -0.826400 -0.552200
vn -0.191500 -0.191500 -0.962600
vn -0.163200 0.548100 -0.820300
vn -0.163200 -0.548100 -0.820300
vn -0.191500 0.191500 -0.962600
vn 0.109800 -0.826400 -0.552200
vn 0.191500 -0.191500 -0.962600
vn 0.163200 0.548100 -0.820300
vn 0.163200 -0.548100 -0.820300
vn 0.191500 0.191500 -0.962600
vn 0.109800 0.826400 -0.552200
vn 0.464700 -0.548100 -0.695400
vn 0.545300 0.191500 -0.816100
vn 0.312800 0.826400 -0.468100
vn 0.312800 -0.826400 -0.468100
vn 0.545300 -0.191500 -0.816100
vn 0.464700 0.548100 -0.695400
vn 0.695400 -0.548100 -0.464700
vn 0.816100 0.191500 -0.545300
vn 0.468100 0.826400 -0.312800
vn 0.468100 -0.826400 -0.312800
vn 0.816100 -0.191500 -0.545300
vn 0.695400 0.548100 -0.464700
vn 0.552200 -0.826400 -0.109800
vn 0.962600 -0.191500 -0.191500
vn 0.820300 0.548100 -0.163200
vn 0.820300 -0.548100 -0.163200
vn 0.962600 0.191500 -0.191500
vn 0.552200 0.826400 -0.109800
vn 0.962600 -0.191500 0.191500
vn 0.820300 0.548100 0.163200
vn 0.820300 -0.548100 0.163200
vn 0.962600 0.191500 0.191500
vn 0.552200 0.826400 0.109800
vn 0.552200 -0.826400 0.109800
vn 0.695400 -0.548100 0.464700
vn 0.816100 0.191500 0.545300
vn 0.468100 0.826400 0.312800
vn 0.468100 -0.826400 0.312800
vn 0.816100 -0.191500 0.545300
vn 0.695400 0.548100 0.464700
vn 0.545300 0.191500 0.816100
vn 0.312800 0.826400 0.468100
vn 0.312800 -0.826400 0.468100
vn 0.545300 -0.191500 0.816100
vn 0.464700 0.548100 0.695400
vn 0.464700 -0.548100 0.695400
vn 0.109800 -0.826400 0.552200
vn 0.191500 -0.191500 0.962600
vn 0.163200 0.548100 0.820300
vn 0.163200 -0.548100 0.820300
vn 0.191500 0.191500 0.962600
vn 0.109800 0.826400 0.552200
vn -0.163200 0.548100 0.820300
vn -0.163200 -0.548100 0.820300
vn -0.191500 0.191500 0.962600
vn -0.109800 0.826400 0.552200
vn -0.109800 -0.826400 0.552200
vn -0.191500 -0.191500 0.962600
vn -0.464700 -0.548100 0.695400
vn -0.545300 0.191500 0.816100
vn -0.312800 0.826400 0.468100
vn -0.312800 -0.826400 0.468100
vn -0.545300 -0.191500 0.816100
vn -0.464700 0.548100 0.695400
vn -0.468100 0.826400 0.312800
vn -0.468100 -0.826400 0.312800
vn -0.816100 -0.191500 0.545300
vn -0.695400 0.548100 0.464700
vn -0.695400 -0.548100 0.464700
vn -0.816100 0.191500 0.545300
vn -0.194900 0.980000 -0.038800
vn -0.194900 -0.980000 -0.038800
vn -0.165300 0.980000 -0.110400
vn -0.165300 -0.980000 -0.110400
vn -0.110400 -0.980000 -0.165300
vn -0.110400 0.980000 -0.165300
vn -0.038800 0.980000 -0.194900
vn -0.038800 -0.980000 -0.194900
vn 0.038800 0.980000 -0.194900
vn 0.038800 -0.980000 -0.194900
vn 0.110400 0.980000 -0.165300
vn 0.110400 -0.980000 -0.165300
vn 0.165300 0.980000 -0.110400
vn 0.165300 -0.980000 -0.110400
vn 0.194900 0.980000 -0.038800
vn 0.194900 -0.980000 -0.038800
vn 0.194900 0.980000 0.038800
vn 0.194900 -0.980000 0.038800
vn 0.165300 -0.980000 0.110400
vn 0.165300 0.980000 0.110400
vn 0.110400 0.980000 0.165300
vn 0.110400 -0.980000 0.165300
vn 0.038800 0.980000 0.194900
vn 0.038800 -0.980000 0.194900
vn -0.038800 0.980000 0.194900
vn -0.038800 -0.980000 0.194900
vn -0.110400 -0.980000 0.165300
vn -0.110400 0.980000 0.165300
vn -0.165300 0.980000 0.110400
vn -0.165300 -0.980000 0.110400
vn -0.552200 -0.826400 0.109800
vn -0.962600 -0.191500 0.191500
vn -0.820300 0.548100 0.163200
vn -0.194900 0.980000 0.038800
vn -0.194900 -0.980000 0.038800
vn -0.820300 -0.548100 0.163200
vn -0.962600 0.191500 0.191500
vn -0.552200 0.826400 0.109800
usemtl None
s off
f 6//1 13//1 14//1
f 4//2 11//2 12//2
f 2//3 9//3 10//3
f 6//4 5//4 12//4
f 3//5 10//5 11//5
f 1//6 8//6 9//6
f 9//7 16//7 17//7
f 13//8 12//8 19//8
f 10//9 17//9 18//9
f 8//10 15//10 16//10
f 14//11 13//11 20//11
f 11//12 18//12 19//12
f 20//13 19//13 26//13
f 17//14 24//14 25//14
f 15//15 22//15 23//15
f 20//16 27//16 28//16
f 18//17 25//17 26//17
f 16//18 23//18 24//18
f 22//19 29//19 30//19
f 28//20 27//20 34//20
f 25//21 32//21 33//21
f 24//22 23//22 30//22
f 26//23 33//23 34//23
f 24//24 31//24 32//24
f 34//25 41//25 42//25
f 32//26 39//26 40//26
f 30//27 37//27 38//27
f 33//28 40//28 41//28
f 31//29 38//29 39//29
f 29//30 36//30 37//30
f 40//31 47//31 48//31
f 38//32 45//32 46//32
f 36//33 43//33 44//33
f 41//34 48//34 49//34
f 40//35 39//35 46//35
f 37//36 44//36 45//36
f 48//37 47//37 55//37
f 45//38 53//38 54//38
f 43//39 51//39 52//39
f 48//40 56//40 57//40
f 46//41 54//41 55//41
f 44//42 52//42 53//42
f 56//43 63//43 64//43
f 54//44 61//44 62//44
f 52//45 59//45 60//45
f 55//46 62//46 63//46
f 53//47 60//47 61//47
f 52//48 51//48 58//48
f 61//49 68//49 69//49
f 59//50 66//50 67//50
f 62//51 69//51 70//51
f 60//52 67//52 68//52
f 59//53 58//53 65//53
f 63//54 70//54 71//54
f 70//55 69//55 76//55
f 67//56 74//56 75//56
f 65//57 72//57 73//57
f 70//58 77//58 78//58
f 68//59 75//59 76//59
f 66//60 73//60 74//60
f 74//61 81//61 82//61
f 72//62 79//62 80//62
f 77//63 84//63 85//63
f 75//64 82//64 83//64
f 73//65 80//65 81//65
f 76//66 83//66 84//66
f 84//67 91//67 92//67
f 83//68 82//68 89//68
f 80//69 87//69 88//69
f 83//70 90//70 91//70
f 82//71 81//71 88//71
f 79//72 86//72 87//72
f 87//73 94//73 95//73
f 91//74 90//74 97//74
f 88//75 95//75 96//75
f 86//76 93//76 94//76
f 91//77 98//77 99//77
f 89//78 96//78 97//78
f 98//79 97//79 105//79
f 95//80 103//80 104//80
f 93//81 101//81 102//81
f 98//82 106//82 107//82
f 96//83 104//83 105//83
f 95//84 94//84 102//84
f 101//85 108//85 109//85
f 106//86 113//86 114//86
f 104//87 111//87 112//87
f 102//88 109//88 110//88
f 106//89 105//89 112//89
f 103//90 110//90 111//90
f 1//91 50//91 8//91
f 100//92 7//92 14//92
f 8//93 50//93 15//93
f 100//94 14//94 21//94
f 100//95 21//95 28//95
f 15//96 50//96 22//96
f 22//97 50//97 29//97
f 100//98 28//98 35//98
f 29//99 50//99 36//99
f 100//100 35//100 42//100
f 36//101 50//101 43//101
f 100//102 42//102 49//102
f 43//103 50//103 51//103
f 100//104 49//104 57//104
f 51//105 50//105 58//105
f 100//106 57//106 64//106
f 58//107 50//107 65//107
f 100//108 64//108 71//108
f 100//109 71//109 78//109
f 65//110 50//110 72//110
f 72//111 50//111 79//111
f 100//112 78//112 85//112
f 79//113 50//113 86//113
f 100//114 85//114 92//114
f 86//115 50//115 93//115
f 100//116 92//116 99//116
f 100//117 99//117 107//117
f 93//118 50//118 101//118
f 101//119 50//119 108//119
f 100//120 107//120 114//120
f 113//121 6//121 7//121
f 111//122 4//122 5//122
f 110//123 109//123 2//123
f 108//124 50//124 1//124
f 100//125 114//125 7//125
f 112//126 5//126 6//126
f 111//127 110//127 3//127
f 109//128 108//128 1//128
f 7//1 6//1 14//1
f 5//2 4//2 12//2
f 3//3 2//3 10//3
f 13//4 6//4 12//4
f 4//5 3//5 11//5
f 2//6 1//6 9//6
f 10//7 9//7 17//7
f 20//8 13//8 19//8
f 11//9 10//9 18//9
f 9//10 8//10 16//10
f 21//11 14//11 20//11
f 12//12 11//12 19//12
f 27//13 20//13 26//13
f 18//14 17//14 25//14
f 16//15 15//15 23//15
f 21//16 20//16 28//16
f 19//17 18//17 26//17
f 17//18 16//18 24//18
f 23//19 22//19 30//19
f 35//20 28//20 34//20
f 26//21 25//21 33//21
f 31//22 24//22 30//22
f 27//23 26//23 34//23
f 25//24 24//24 32//24
f 35//25 34//25 42//25
f 33//26 32//26 40//26
f 31//27 30//27 38//27
f 34//28 33//28 41//28
f 32//29 31//29 39//29
f 30//30 29//30 37//30
f 41//31 40//31 48//31
f 39//32 38//32 46//32
f 37//33 36//33 44//33
f 42//34 41//34 49//34
f 47//35 40//35 46//35
f 38//36 37//36 45//36
f 56//37 48//37 55//37
f 46//38 45//38 54//38
f 44//39 43//39 52//39
f 49//40 48//40 57//40
f 47//41 46//41 55//41
f 45//42 44//42 53//42
f 57//43 56//43 64//43
f 55//44 54//44 62//44
f 53//45 52//45 60//45
f 56//46 55//46 63//46
f 54//47 53//47 61//47
f 59//48 52//48 58//48
f 62//49 61//49 69//49
f 60//50 59//50 67//50
f 63//51 62//51 70//51
f 61//52 60//52 68//52
f 66//53 59//53 65//53
f 64//54 63//54 71//54
f 77//55 70//55 76//55
f 68//56 67//56 75//56
f 66//57 65//57 73//57
f 71//58 70//58 78//58
f 69//59 68//59 76//59
f 67//60 66//60 74//60
f 75//61 74//61 82//61
f 73//62 72//62 80//62
f 78//63 77//63 85//63
f 76//64 75//64 83//64
f 74//65 73//65 81//65
f 77//66 76//66 84//66
f 85//67 84//67 92//67
f 90//68 83//68 89//68
f 81//69 80//69 88//69
f 84//70 83//70 91//70
f 89//71 82//71 88//71
f 80//72 79//72 87//72
f 88//73 87//73 95//73
f 98//74 91//74 97//74
f 89//75 88//75 96//75
f 87//76 86//76 94//76
f 92//77 91//77 99//77
f 90//78 89//78 97//78
f 106//79 98//79 105//79
f 96//80 95//80 104//80
f 94//81 93//81 102//81
f 99//82 98//82 107//82
f 97//83 96//83 105//83
f 103//84 95//84 102//84
f 102//85 101//85 109//85
f 107//86 106//86 114//86
f 105//87 104//87 112//87
f 103//88 102//88 110//88
f 113//89 106//89 112//89
f 104//90 103//90 111//90
f 114//121 113//121 7//121
f 112//122 111//122 5//122
f 3//123 110//123 2//123
f 113//126 112//126 6//126
f 4//127 111//127 3//127
f 2//128 109//128 1//128
